<svg xmlns="http://www.w3.org/2000/svg" width="1081.001" height="1920.999" viewBox="0 0 1081.001 1920.999">
    <path id="Intersection_1" data-name="Intersection 1" d="M3334.441,2253q-10.831-21.047-20.461-43.207-3.423-7.879-6.856-15.768V1424.87c97.139,54.321,200.8,96.518,297.257,153.816,114.8,68.2,221.91,149.506,315.368,245.06,99.375,101.612,177.725,216.669,216.669,355.255,4.762,16.92,4.9,35.135,8.906,66.116-55.84-11.424-101.551-20.765-154.693-31.625a190.122,190.122,0,0,0,.878,39.506Zm542.747-627.476q-170.7-78.953-342.446-155.614c-57.394-25.55-114.561-53.862-173.289-76.192-17.85-6.786-35.926-13.95-54.329-18.682V794.787c44.608-40.684,88.35-82.383,135.668-123.64,78.875-68.775,166.7-132.747,260.747-177.552,182.523-86.965,373.373-150.279,577.438-151.236,82.454-.392,97.785,20.046,88.767,118.151l17.381-1.767V817.125c-78.277,65.578-169.648,114.013-274.254,150.2,93.125,19.754,185.564,40.121,274.254,70.055v697.794c-4.349.048-8.711.073-13.059.073A1183.906,1183.906,0,0,1,3877.188,1625.523ZM3307.124,333h356.228c-11.553,33.923-29.738,66.128-54.857,96.227C3526.7,527.253,3425.822,609.311,3333.5,698.6c-8.348,8.073-17.229,16.137-26.377,24.272Z" transform="translate(-3306.624 -332.5)" fill="#001e47" stroke="rgba(0,0,0,0)" stroke-miterlimit="10" stroke-width="1"/>
</svg>
