<svg xmlns="http://www.w3.org/2000/svg" width="436.987" height="92.763" viewBox="0 0 436.987 92.763">
    <g id="Group_139" data-name="Group 139" transform="translate(3029.583 -157.408)">
        <path id="Path_508" data-name="Path 508" d="M-2991.028,157.408h-12.816V177.3h-6.856V157.408h-12.815V177.3h-6.068v5.083h6.068v42.809h-6.068v5.084h6.068v19.893h12.815V230.278h6.856v19.893h12.816V230.278h6.263v-5.084h-6.263V182.385h6.263V177.3h-6.263Zm-12.816,67.786h-6.855V182.385h6.855Z" fill="#fff"/>
        <path id="Path_509" data-name="Path 509" d="M-2844.609,225.39V208.87h13.713V203.7h-13.713v-14.51h15.756v-5.171h-25.363V230.6h26.549v-5.193Z" fill="#fff"/>
        <path id="Path_510" data-name="Path 510" d="M-2789.369,181.37c3.349,0,7.168,1.552,8.867,2.329l2.321-4.2a24.629,24.629,0,0,0-11.99-3.295c-11.232,0-18.6,5.73-18.6,14.6,0,5.817,4.255,10.481,9.442,13.512,3.735,2.184,7.232,3.83,10.11,7.134a8.4,8.4,0,0,1,2.4,5.719c0,5.5-4.167,8.5-9.221,8.5-5.421,0-10.7-4.154-10.7-4.154l-3.614,4.559s6.972,5.3,14.865,5.3c11.623,0,18.458-7.5,18.458-14.883a14.545,14.545,0,0,0-4.029-10.431,33.089,33.089,0,0,0-5.337-4.756c-4.073-3.137-8.466-5.568-9.721-6.66-1.89-1.639-3.29-2.806-3.29-5.791,0-4.315,3.728-7.481,10.04-7.481" fill="#fff"/>
        <path id="Path_511" data-name="Path 511" d="M-2703.26,183.89l-17.851,46.688h8.16l5.355-15.049h14.466l5.573,15.049h9.97l-17.819-46.688Zm-2.705,26.75,5.422-14.888,5.593,14.888Z" fill="#fff"/>
        <path id="Path_512" data-name="Path 512" d="M-2648.678,207.218l.236-.062c6.387-1.6,10-5.814,10-11.158a12.046,12.046,0,0,0-8.5-11.54,30.88,30.88,0,0,0-10.334-1.43,58.394,58.394,0,0,0-11.706,1.4v46.148h9.265l0-21.267a7.494,7.494,0,0,1,3.767.8c1.692,1.187,3.179,3.044,5.074,5.977,2.47,3.825,7.815,14.494,7.815,14.494h9.752s-6.044-12.312-8.968-16.845a22.519,22.519,0,0,0-6.41-6.514m-8.942-2.376h-2.093V187.791a16.376,16.376,0,0,1,2.372-.227c5.167,0,8.506,3.421,8.506,8.712,0,5.229-3.2,8.566-8.785,8.566" fill="#fff"/>
        <path id="Path_513" data-name="Path 513" d="M-2607.315,183.24c-1.475-.157-3.452-.211-4.808-.211a52.944,52.944,0,0,0-11.708,1.553v45.995h9.548V211.471h1.6a39.887,39.887,0,0,0,6.866-.359c8.155-1.214,13.218-6.789,13.218-14,0-7.939-5.365-13-14.719-13.875m-4.25,23.345h-2.718V188.17a18.13,18.13,0,0,1,2.718-.188c5.336,0,8.784,3.833,8.784,9.759,0,5.485-3.121,8.844-8.784,8.844" fill="#fff"/>
        <path id="Path_514" data-name="Path 514" d="M-2950.244,183.033h14.539v47.545h9.517V183.033h14.539v-5.693h-38.594Z" fill="#fff"/>
        <path id="Path_515" data-name="Path 515" d="M-2878.622,183.89v18.8h-16.629V183.995l0-.1h-9.607v46.688h9.6V207.872h16.629v22.706h9.606V183.89Z" fill="#fff"/>
        <path id="Path_516" data-name="Path 516" d="M-2739.453,183.89v18.8h-16.628l0-18.8h-9.609v46.688h9.607V207.872h16.628v22.706h9.6V183.89Z" fill="#fff"/>
    </g>
</svg>
